<svg width="102" height="48" viewBox="0 0 102 48" fill="none" xmlns="http://www.w3.org/2000/svg">
<path d="M1.272 25.5294V17.3694H2.364C3.092 18.4094 3.76 19.4574 4.368 20.5134C4.984 21.5614 5.56 22.6574 6.096 23.8014L5.976 20.6814V17.3694H6.996V25.5294H5.904C5.344 24.3614 4.764 23.2254 4.164 22.1214C3.572 21.0094 2.924 19.9254 2.22 18.8694L2.292 22.1934V25.5294H1.272ZM13.6492 25.1814C13.2892 25.3574 12.9292 25.4774 12.5692 25.5414C12.2092 25.6134 11.8772 25.6494 11.5732 25.6494C10.7172 25.6494 10.0772 25.4054 9.65316 24.9174C9.23716 24.4294 9.02916 23.7614 9.02916 22.9134V22.1934C9.02916 21.3694 9.23716 20.7094 9.65316 20.2134C10.0772 19.7174 10.6732 19.4694 11.4412 19.4694C11.8492 19.4694 12.2212 19.5534 12.5572 19.7214C12.9012 19.8814 13.1732 20.1294 13.3732 20.4654C13.5812 20.7934 13.6852 21.2174 13.6852 21.7374C13.6852 22.0734 13.6372 22.4574 13.5412 22.8894H10.0012V22.9134C10.0012 23.5214 10.1252 23.9814 10.3732 24.2934C10.6292 24.6054 11.0372 24.7614 11.5972 24.7614C11.8532 24.7614 12.1332 24.7294 12.4372 24.6654C12.7492 24.6014 13.0532 24.5014 13.3492 24.3654L13.6492 25.1814ZM11.4412 20.3334C10.9772 20.3334 10.6252 20.4854 10.3852 20.7894C10.1532 21.0854 10.0252 21.5054 10.0012 22.0494H12.6892C12.7132 21.9054 12.7252 21.7694 12.7252 21.6414C12.7252 21.1934 12.5972 20.8654 12.3412 20.6574C12.0932 20.4414 11.7932 20.3334 11.4412 20.3334ZM19.048 25.5294V24.6894C18.632 25.0494 18.26 25.3014 17.932 25.4454C17.604 25.5814 17.276 25.6494 16.948 25.6494C16.42 25.6494 16.016 25.4774 15.736 25.1334C15.456 24.7814 15.316 24.2894 15.316 23.6574V19.5894H16.3V23.5134C16.3 23.9294 16.372 24.2374 16.516 24.4374C16.668 24.6294 16.892 24.7254 17.188 24.7254C17.412 24.7254 17.664 24.6694 17.944 24.5574C18.224 24.4454 18.572 24.2214 18.988 23.8854V19.5894H19.972V25.5294H19.048ZM25.2112 20.4534C24.8512 20.4534 24.4992 20.5174 24.1552 20.6454C23.8192 20.7734 23.4592 21.0174 23.0752 21.3774V25.5294H22.0912V19.5894H23.0272V20.5494C23.4352 20.1494 23.8072 19.8694 24.1432 19.7094C24.4872 19.5494 24.8432 19.4694 25.2112 19.4694V20.4534ZM31.2014 22.1934V22.9134C31.2014 23.7614 30.9814 24.4294 30.5414 24.9174C30.1094 25.4054 29.4894 25.6494 28.6814 25.6494C27.8814 25.6494 27.2614 25.4054 26.8214 24.9174C26.3814 24.4294 26.1614 23.7614 26.1614 22.9134V22.1934C26.1614 21.3614 26.3774 20.7014 26.8094 20.2134C27.2494 19.7174 27.8734 19.4694 28.6814 19.4694C29.4894 19.4694 30.1094 19.7174 30.5414 20.2134C30.9814 20.7014 31.2014 21.3614 31.2014 22.1934ZM30.1814 22.1934C30.1814 21.6254 30.0534 21.1814 29.7974 20.8614C29.5414 20.5334 29.1694 20.3694 28.6814 20.3694C28.2014 20.3694 27.8294 20.5334 27.5654 20.8614C27.3094 21.1814 27.1814 21.6254 27.1814 22.1934V22.9134C27.1814 23.5054 27.3094 23.9614 27.5654 24.2814C27.8294 24.6014 28.2014 24.7614 28.6814 24.7614C29.1694 24.7614 29.5414 24.6014 29.7974 24.2814C30.0534 23.9614 30.1814 23.5054 30.1814 22.9134V22.1934Z" fill="#9EAEFF"/>
<g filter="url(#filter0_d_42_9)">
<path d="M49.9103 4.5C51.5517 4.50008 53.4657 5.91491 55.0587 9.19043C56.6022 12.3641 57.5998 16.8539 57.5998 21.8945C57.5997 26.9349 56.6022 31.4241 55.0587 34.5977C53.4657 37.8732 51.5517 39.288 49.9103 39.2881C48.2689 39.2881 46.354 37.8733 44.7609 34.5977C43.2175 31.4241 42.2209 26.9348 42.2209 21.8945C42.2209 16.8541 43.2175 12.3641 44.7609 9.19043C46.354 5.91482 48.2689 4.5 49.9103 4.5Z" stroke="#004FC5" stroke-width="3"/>
</g>
<g filter="url(#filter1_d_42_9)">
<path d="M36.5481 12.0586C37.5384 10.6194 39.7912 9.84517 43.2479 10.3982C46.6169 10.9371 50.6983 12.6989 54.6336 15.6215C58.5687 18.544 61.4936 21.9855 63.0746 25.1226C64.6968 28.3415 64.7206 30.8065 63.7303 32.2457C62.7398 33.6846 60.4874 34.4582 57.031 33.9053C53.6621 33.3663 49.5812 31.6049 45.646 28.6825C41.7107 25.7599 38.7854 22.318 37.2043 19.1808C35.5822 15.9621 35.558 13.4978 36.5481 12.0586Z" stroke="#004FC5" stroke-width="3"/>
</g>
<g filter="url(#filter2_d_42_9)">
<path d="M63.7304 11.6601C64.7207 13.0992 64.6969 15.5642 63.0747 18.7831C61.4937 21.9203 58.5683 25.3622 54.633 28.2848C50.6978 31.2072 46.6169 32.9686 43.248 33.5076C39.7913 34.0606 37.5385 33.2863 36.5482 31.8472C35.5581 30.408 35.5824 27.9436 37.2045 24.725C38.7855 21.5879 41.7103 18.1464 45.6454 15.2239C49.5807 12.3013 53.6621 10.5395 57.0311 10.0005C60.4876 9.44756 62.74 10.2212 63.7304 11.6601Z" stroke="#004FC5" stroke-width="3"/>
</g>
<path d="M70.98 22.3494C70.98 23.1014 71.128 23.6814 71.424 24.0894C71.728 24.4894 72.192 24.6894 72.816 24.6894C73.088 24.6894 73.356 24.6574 73.62 24.5934C73.884 24.5294 74.2 24.4174 74.568 24.2574L74.916 25.1454C74.524 25.3214 74.152 25.4494 73.8 25.5294C73.448 25.6094 73.108 25.6494 72.78 25.6494C71.836 25.6494 71.12 25.3534 70.632 24.7614C70.144 24.1694 69.9 23.3654 69.9 22.3494V20.5494C69.9 19.5334 70.144 18.7294 70.632 18.1374C71.12 17.5454 71.836 17.2494 72.78 17.2494C73.108 17.2494 73.448 17.2894 73.8 17.3694C74.16 17.4494 74.524 17.5774 74.892 17.7534L74.556 18.6534C73.908 18.3654 73.328 18.2214 72.816 18.2214C72.192 18.2214 71.728 18.4214 71.424 18.8214C71.128 19.2214 70.98 19.7974 70.98 20.5494V22.3494ZM80.8303 22.1934V22.9134C80.8303 23.7614 80.6103 24.4294 80.1703 24.9174C79.7383 25.4054 79.1183 25.6494 78.3103 25.6494C77.5103 25.6494 76.8903 25.4054 76.4503 24.9174C76.0103 24.4294 75.7903 23.7614 75.7903 22.9134V22.1934C75.7903 21.3614 76.0063 20.7014 76.4383 20.2134C76.8783 19.7174 77.5023 19.4694 78.3103 19.4694C79.1183 19.4694 79.7383 19.7174 80.1703 20.2134C80.6103 20.7014 80.8303 21.3614 80.8303 22.1934ZM79.8103 22.1934C79.8103 21.6254 79.6823 21.1814 79.4263 20.8614C79.1703 20.5334 78.7983 20.3694 78.3103 20.3694C77.8303 20.3694 77.4583 20.5334 77.1943 20.8614C76.9383 21.1814 76.8103 21.6254 76.8103 22.1934V22.9134C76.8103 23.5054 76.9383 23.9614 77.1943 24.2814C77.4583 24.6014 77.8303 24.7614 78.3103 24.7614C78.7983 24.7614 79.1703 24.6014 79.4263 24.2814C79.6823 23.9614 79.8103 23.5054 79.8103 22.9134V22.1934ZM86.4945 25.5294V20.4534H83.7945V25.5294H82.8105V20.4534H81.7785V19.5894H82.8105V18.6894C82.8105 18.3294 82.8705 17.9934 82.9905 17.6814C83.1105 17.3694 83.3105 17.1214 83.5905 16.9374C83.8705 16.7454 84.2425 16.6494 84.7065 16.6494C85.1385 16.6494 85.5745 16.7374 86.0145 16.9134L85.7265 17.7534C85.3665 17.6174 85.0465 17.5494 84.7665 17.5494C84.4625 17.5494 84.2225 17.6414 84.0465 17.8254C83.8785 18.0014 83.7945 18.2894 83.7945 18.6894V19.5894H86.4945V18.6054C86.4945 18.2374 86.5545 17.8974 86.6745 17.5854C86.8025 17.2654 87.0065 17.0094 87.2865 16.8174C87.5665 16.6254 87.9385 16.5294 88.4025 16.5294C88.8985 16.5294 89.3865 16.6334 89.8665 16.8414L89.5905 17.6694C89.1825 17.5094 88.8265 17.4294 88.5225 17.4294C88.1865 17.4294 87.9265 17.5214 87.7425 17.7054C87.5665 17.8894 87.4785 18.1854 87.4785 18.5934V19.5894H89.4225V20.4534H87.4785V25.5294H86.4945ZM94.8132 25.1814C94.4532 25.3574 94.0932 25.4774 93.7332 25.5414C93.3732 25.6134 93.0412 25.6494 92.7372 25.6494C91.8812 25.6494 91.2412 25.4054 90.8172 24.9174C90.4012 24.4294 90.1932 23.7614 90.1932 22.9134V22.1934C90.1932 21.3694 90.4012 20.7094 90.8172 20.2134C91.2412 19.7174 91.8372 19.4694 92.6052 19.4694C93.0132 19.4694 93.3852 19.5534 93.7212 19.7214C94.0652 19.8814 94.3372 20.1294 94.5372 20.4654C94.7452 20.7934 94.8492 21.2174 94.8492 21.7374C94.8492 22.0734 94.8012 22.4574 94.7052 22.8894H91.1652V22.9134C91.1652 23.5214 91.2892 23.9814 91.5372 24.2934C91.7932 24.6054 92.2012 24.7614 92.7612 24.7614C93.0172 24.7614 93.2972 24.7294 93.6012 24.6654C93.9132 24.6014 94.2172 24.5014 94.5132 24.3654L94.8132 25.1814ZM92.6052 20.3334C92.1412 20.3334 91.7892 20.4854 91.5492 20.7894C91.3172 21.0854 91.1892 21.5054 91.1652 22.0494H93.8532C93.8772 21.9054 93.8892 21.7694 93.8892 21.6414C93.8892 21.1934 93.7612 20.8654 93.5052 20.6574C93.2572 20.4414 92.9572 20.3334 92.6052 20.3334ZM100.86 25.1814C100.5 25.3574 100.14 25.4774 99.7801 25.5414C99.4201 25.6134 99.0881 25.6494 98.7841 25.6494C97.9281 25.6494 97.2881 25.4054 96.8641 24.9174C96.4481 24.4294 96.2401 23.7614 96.2401 22.9134V22.1934C96.2401 21.3694 96.4481 20.7094 96.8641 20.2134C97.2881 19.7174 97.8841 19.4694 98.6521 19.4694C99.0601 19.4694 99.4321 19.5534 99.7681 19.7214C100.112 19.8814 100.384 20.1294 100.584 20.4654C100.792 20.7934 100.896 21.2174 100.896 21.7374C100.896 22.0734 100.848 22.4574 100.752 22.8894H97.2121V22.9134C97.2121 23.5214 97.3361 23.9814 97.5841 24.2934C97.8401 24.6054 98.2481 24.7614 98.8081 24.7614C99.0641 24.7614 99.3441 24.7294 99.6481 24.6654C99.9601 24.6014 100.264 24.5014 100.56 24.3654L100.86 25.1814ZM98.6521 20.3334C98.1881 20.3334 97.8361 20.4854 97.5961 20.7894C97.3641 21.0854 97.2361 21.5054 97.2121 22.0494H99.9001C99.9241 21.9054 99.9361 21.7694 99.9361 21.6414C99.9361 21.1934 99.8081 20.8654 99.5521 20.6574C99.3041 20.4414 99.0041 20.3334 98.6521 20.3334Z" fill="#9EAEFF"/>
<defs>
<filter id="filter0_d_42_9" x="36.7209" y="0" width="28.3786" height="47.7881" filterUnits="userSpaceOnUse" color-interpolation-filters="sRGB">
<feFlood flood-opacity="0" result="BackgroundImageFix"/>
<feColorMatrix in="SourceAlpha" type="matrix" values="0 0 0 0 0 0 0 0 0 0 0 0 0 0 0 0 0 0 127 0" result="hardAlpha"/>
<feMorphology radius="1" operator="dilate" in="SourceAlpha" result="effect1_dropShadow_42_9"/>
<feOffset dx="1" dy="2"/>
<feGaussianBlur stdDeviation="2"/>
<feColorMatrix type="matrix" values="0 0 0 0 0.6125 0 0 0 0 0.793333 0 0 0 0 1 0 0 0 0.41 0"/>
<feBlend mode="normal" in2="BackgroundImageFix" result="effect1_dropShadow_42_9"/>
<feBlend mode="normal" in="SourceGraphic" in2="effect1_dropShadow_42_9" result="shape"/>
</filter>
<filter id="filter1_d_42_9" x="30.4043" y="5.69531" width="41.4705" height="36.913" filterUnits="userSpaceOnUse" color-interpolation-filters="sRGB">
<feFlood flood-opacity="0" result="BackgroundImageFix"/>
<feColorMatrix in="SourceAlpha" type="matrix" values="0 0 0 0 0 0 0 0 0 0 0 0 0 0 0 0 0 0 127 0" result="hardAlpha"/>
<feMorphology radius="1" operator="dilate" in="SourceAlpha" result="effect1_dropShadow_42_9"/>
<feOffset dx="1" dy="2"/>
<feGaussianBlur stdDeviation="2"/>
<feColorMatrix type="matrix" values="0 0 0 0 0.6125 0 0 0 0 0.793333 0 0 0 0 1 0 0 0 0.41 0"/>
<feBlend mode="normal" in2="BackgroundImageFix" result="effect1_dropShadow_42_9"/>
<feBlend mode="normal" in="SourceGraphic" in2="effect1_dropShadow_42_9" result="shape"/>
</filter>
<filter id="filter2_d_42_9" x="30.4042" y="5.29755" width="41.4705" height="36.913" filterUnits="userSpaceOnUse" color-interpolation-filters="sRGB">
<feFlood flood-opacity="0" result="BackgroundImageFix"/>
<feColorMatrix in="SourceAlpha" type="matrix" values="0 0 0 0 0 0 0 0 0 0 0 0 0 0 0 0 0 0 127 0" result="hardAlpha"/>
<feMorphology radius="1" operator="dilate" in="SourceAlpha" result="effect1_dropShadow_42_9"/>
<feOffset dx="1" dy="2"/>
<feGaussianBlur stdDeviation="2"/>
<feColorMatrix type="matrix" values="0 0 0 0 0.6125 0 0 0 0 0.793333 0 0 0 0 1 0 0 0 0.41 0"/>
<feBlend mode="normal" in2="BackgroundImageFix" result="effect1_dropShadow_42_9"/>
<feBlend mode="normal" in="SourceGraphic" in2="effect1_dropShadow_42_9" result="shape"/>
</filter>
</defs>
</svg>
